<?xml version="1.0" encoding="UTF-8" standalone="no"?>
<!-- Created with Inkscape (http://www.inkscape.org/) -->

<svg
   version="1.1"
   id="svg1"
   width="1024"
   height="1024"
   viewBox="0 0 1024 1024"
   sodipodi:docname="Designer(10).svg"
   xml:space="preserve"
   inkscape:version="1.3.2 (091e20e, 2023-11-25, custom)"
   xmlns:inkscape="http://www.inkscape.org/namespaces/inkscape"
   xmlns:sodipodi="http://sodipodi.sourceforge.net/DTD/sodipodi-0.dtd"
   xmlns="http://www.w3.org/2000/svg"
   xmlns:svg="http://www.w3.org/2000/svg"><defs
     id="defs1"><inkscape:path-effect
       effect="mirror_symmetry"
       start_point="394.84168,181.70853"
       end_point="394.84168,857.54467"
       center_point="394.84168,519.6266"
       id="path-effect1"
       is_visible="true"
       lpeversion="1.2"
       lpesatellites=""
       mode="free"
       discard_orig_path="false"
       fuse_paths="false"
       oposite_fuse="false"
       split_items="false"
       split_open="false"
       link_styles="false" /></defs><sodipodi:namedview
     id="namedview1"
     pagecolor="#ffffff"
     bordercolor="#000000"
     borderopacity="0.25"
     inkscape:showpageshadow="2"
     inkscape:pageopacity="0.0"
     inkscape:pagecheckerboard="0"
     inkscape:deskcolor="#d1d1d1"
     inkscape:zoom="0.35355339"
     inkscape:cx="-131.52186"
     inkscape:cy="1050.7607"
     inkscape:window-width="1920"
     inkscape:window-height="1111"
     inkscape:window-x="-9"
     inkscape:window-y="-9"
     inkscape:window-maximized="1"
     inkscape:current-layer="g1"
     showguides="true" /><g
     inkscape:groupmode="layer"
     inkscape:label="Image"
     id="g1"><g
       id="g2"
       transform="matrix(1.3418796,0,0,1.3418796,-17.829996,-183.75641)"
       style="display:inline"
       inkscape:path-effect="#path-effect1"><path
         style="display:inline;fill:#fb5203"
         d="m 381.72004,856.35486 c -14.92151,-2.74706 -17.04976,-4.08848 -55.0398,-41.91543 l -77.67937,-77.34589 20.93614,-19.92413 c 0.42157,-0.40118 22.20392,21.68928 51.64083,51.03418 29.43691,29.3449 54.92453,54.30809 56.63916,55.47375 1.71463,1.16567 6.21976,2.91131 10,3.92223 l 6.62468,1.77159 -0.0234,27.98587 -2.71875,0.1743 c -1.64965,0.10576 -6.32077,-0.42926 -10.37948,-1.17647 z M 174.31001,576.22638 173.91576,553.43255 c 0.003,-20.40496 -0.15498,-22.33558 1.71474,-25.4023 l 2.02351,-3.31897 15.29284,0.31897 c 15.24544,0.31798 15.30573,0.31045 19.44847,-2.42914 5.11834,-3.38476 7.22454,-6.48466 7.91781,-11.65339 0.75091,-5.59844 -0.22978,-8.55719 -4.34675,-13.11418 -4.53443,-5.01908 -7.42562,-5.72079 -24.2961,-5.89682 -14.19851,-0.14815 -16.75155,-1.6007 -17.6367,-5.21501 0,0 -8.23708,-33.98662 0.70246,-43.39467 l 114.32092,-120.3124 c 9.2915,-9.77846 2.58873,-18.24211 -1.257,-22.44039 -4.60957,-5.03165 -14.40279,-6.72839 -22.57988,0.7104 l -8.38405,7.62707 -92.78498,-97.98217 -0.001,185.40336 c 0,0.3619 -12.07583,1.04922 -15.47235,-0.27659 -3.20322,-1.25037 -8.24774,-6.39497 -11.99205,-12.22997 -5.79291,-9.02748 -5.94286,-11.1008 -6.2266,-86.09535 l -0.25872,-68.38178 c 0.16544,-17.77 8.36862,-31.92168 20.37491,-41.20242 12.46699,-9.21977 32.67191,-9.79387 45.0007,-7.70161 12.9555,2.19862 22.30939,7.81341 32.82584,14.34287 10.81168,6.71276 29.92785,28.35315 43.55775,43.78058 l 50.31098,56.94603 c 7.7847,8.81136 28.65094,13.01764 50.41818,13.30425 l -0.008,177.03309 -90.52125,88.55826 z m 138.66833,-72.36782 c 17.20858,-8.14096 21.595,-31.70697 8.87266,-46.16031 -6.12303,-6.95613 -11.02922,-9.54347 -19.68396,-10.09889 -13.19165,-0.84659 -23.18741,4.54318 -28.78029,15.97461 -6.12397,12.51695 -2.21012,28.80624 9.05245,37.39662 8.79626,6.70924 20.01874,7.86492 30.53914,2.88797 z m 94.98498,352.4963 c 14.92151,-2.74706 17.04976,-4.08848 55.0398,-41.91543 l 77.67937,-77.34589 -20.93614,-19.92413 c -0.42157,-0.40118 -22.20392,21.68928 -51.64083,51.03418 -29.43691,29.3449 -54.92453,54.30809 -56.63916,55.47375 -1.71463,1.16567 -6.21976,2.91131 -10,3.92223 l -6.62468,1.77159 0.0234,27.98587 2.71875,0.1743 c 1.64965,0.10576 6.32077,-0.42926 10.37948,-1.17647 z m 207.41003,-280.12848 0.39425,-22.79383 c -0.003,-20.40496 0.15498,-22.33558 -1.71474,-25.4023 l -2.02351,-3.31897 -15.29284,0.31897 c -15.24544,0.31798 -15.30573,0.31045 -19.44847,-2.42914 -5.11834,-3.38476 -7.22454,-6.48466 -7.91781,-11.65339 -0.75091,-5.59844 0.22978,-8.55719 4.34675,-13.11418 4.53443,-5.01908 7.42562,-5.72079 24.2961,-5.89682 14.19851,-0.14815 16.75155,-1.6007 17.6367,-5.21501 0,0 8.23708,-33.98662 -0.70246,-43.39467 L 500.6264,323.01464 c -9.2915,-9.77846 -2.58873,-18.24211 1.257,-22.44039 4.60957,-5.03165 14.40279,-6.72839 22.57988,0.7104 l 8.38405,7.62707 92.78498,-97.98217 0.001,185.40336 c 0,0.3619 12.07583,1.04922 15.47235,-0.27659 3.20322,-1.25037 8.24774,-6.39497 11.99205,-12.22997 5.79291,-9.02748 5.94286,-11.1008 6.2266,-86.09535 l 0.25872,-68.38178 c -0.16544,-17.77 -8.36862,-31.92168 -20.37491,-41.20242 -12.46699,-9.21977 -32.67191,-9.79387 -45.0007,-7.70161 -12.9555,2.19862 -22.30939,7.81341 -32.82584,14.34287 -10.81168,6.71276 -29.92785,28.35315 -43.55775,43.78058 l -50.31098,56.94603 c -7.7847,8.81136 -28.65094,13.01764 -50.41818,13.30425 l 0.008,177.03309 90.52125,88.55826 z M 476.70502,503.85856 c -17.20858,-8.14096 -21.595,-31.70697 -8.87266,-46.16031 6.12303,-6.95613 11.02922,-9.54347 19.68396,-10.09889 13.19165,-0.84659 23.18741,4.54318 28.78029,15.97461 6.12397,12.51695 2.21012,28.80624 -9.05245,37.39662 -8.79626,6.70924 -20.01874,7.86492 -30.53914,2.88797 z"
         id="path3"
         sodipodi:nodetypes="sscssssccsssccscssssssssssccsssscsssssccccssssss"
         inkscape:original-d="m 381.72004,856.35486 c -14.92151,-2.74706 -17.04976,-4.08848 -55.0398,-41.91543 l -77.67937,-77.34589 20.93614,-19.92413 c 0.42157,-0.40118 22.20392,21.68928 51.64083,51.03418 29.43691,29.3449 54.92453,54.30809 56.63916,55.47375 1.71463,1.16567 6.21976,2.91131 10,3.92223 l 6.62468,1.77159 -0.0234,27.98587 -2.71875,0.1743 c -1.64965,0.10576 -6.32077,-0.42926 -10.37948,-1.17647 z M 174.31001,576.22638 173.91576,553.43255 c 0.003,-20.40496 -0.15498,-22.33558 1.71474,-25.4023 l 2.02351,-3.31897 15.29284,0.31897 c 15.24544,0.31798 15.30573,0.31045 19.44847,-2.42914 5.11834,-3.38476 7.22454,-6.48466 7.91781,-11.65339 0.75091,-5.59844 -0.22978,-8.55719 -4.34675,-13.11418 -4.53443,-5.01908 -7.42562,-5.72079 -24.2961,-5.89682 -14.19851,-0.14815 -16.75155,-1.6007 -17.6367,-5.21501 0,0 -8.23708,-33.98662 0.70246,-43.39467 l 114.32092,-120.3124 c 9.2915,-9.77846 2.58873,-18.24211 -1.257,-22.44039 -4.60957,-5.03165 -14.40279,-6.72839 -22.57988,0.7104 l -8.38405,7.62707 -92.78498,-97.98217 -0.001,185.40336 c 0,0.3619 -12.07583,1.04922 -15.47235,-0.27659 -3.20322,-1.25037 -8.24774,-6.39497 -11.99205,-12.22997 -5.79291,-9.02748 -5.94286,-11.1008 -6.2266,-86.09535 l -0.25872,-68.38178 c 0.16544,-17.77 8.36862,-31.92168 20.37491,-41.20242 12.46699,-9.21977 32.67191,-9.79387 45.0007,-7.70161 12.9555,2.19862 22.30939,7.81341 32.82584,14.34287 10.81168,6.71276 29.92785,28.35315 43.55775,43.78058 l 50.31098,56.94603 c 7.7847,8.81136 28.65094,13.01764 50.41818,13.30425 l -0.008,177.03309 -90.52125,88.55826 z m 138.66833,-72.36782 c 17.20858,-8.14096 21.595,-31.70697 8.87266,-46.16031 -6.12303,-6.95613 -11.02922,-9.54347 -19.68396,-10.09889 -13.19165,-0.84659 -23.18741,4.54318 -28.78029,15.97461 -6.12397,12.51695 -2.21012,28.80624 9.05245,37.39662 8.79626,6.70924 20.01874,7.86492 30.53914,2.88797 z" /><path
         style="display:inline;fill:#fbecce"
         d="m 394.8412,708.63187 -9e-5,46.68168 -39.10608,-0.0641 c -17.31803,-0.0284 -80.9621,-82.78254 -80.9621,-82.78254 0.49898,12.8764 2.85096,37.33618 1.49695,38.62921 l -27.27349,26.04511 -25.19028,-20.79079 c -6.87782,-5.67661 -7.20639,-6.20501 -7.20639,-10.21521 0,-3.17794 0.693,-5.02543 2.81375,-7.5012 6.08746,-7.10657 7.18639,-9.39226 7.18251,-14.93917 -0.005,-6.51686 -3.17142,-10.47395 -7.26816,-13.30993 -1.70806,-1.18241 -6.13666,-3.33025 -11.15796,-3.32787 l 1.00838,-92.1931 73.02578,-0.45367 c 1.63643,25.90601 0.49951,57.28362 7.47678,62.44359 3.09419,2.28828 4.01244,3.0771 11.63924,3.62723 10.26002,0.74006 9.4315,-0.86996 30.20645,19.27259 7.43772,7.21131 12.35485,12.35206 13.75,12.61382 1.34653,0.25264 36.56891,0.69251 49.56406,0.76741 m 9.1e-4,-127.6415 -16.08684,2.2607 c 0,0 -11.3431,8.58809 -12.30935,21.0003 -1.02658,13.18722 19.04354,7.88745 28.39671,7.72075 m -230.79169,-295.22981 66.59541,0.002 -66.59297,65.12628 m 230.78943,362.25822 9e-5,46.68168 39.10608,-0.0641 c 17.31803,-0.0284 80.9621,-82.78254 80.9621,-82.78254 -0.49898,12.8764 -2.85096,37.33618 -1.49695,38.62921 l 27.27349,26.04511 25.19028,-20.79079 c 6.87782,-5.67661 7.20639,-6.20501 7.20639,-10.21521 0,-3.17794 -0.693,-5.02543 -2.81375,-7.5012 -6.08746,-7.10657 -7.18639,-9.39226 -7.18251,-14.93917 0.005,-6.51686 3.17142,-10.47395 7.26816,-13.30993 1.70806,-1.18241 6.13666,-3.33025 11.15796,-3.32787 l -1.00838,-92.1931 -73.02578,-0.45367 c -1.63643,25.90601 -0.49951,57.28362 -7.47678,62.44359 -3.09419,2.28828 -4.01244,3.0771 -11.63924,3.62723 -10.26002,0.74006 -9.4315,-0.86996 -30.20645,19.27259 -7.43772,7.21131 -12.35485,12.35206 -13.75,12.61382 -1.34653,0.25264 -36.56891,0.69251 -49.56406,0.76741 m -9.1e-4,-127.6415 16.08684,2.2607 c 0,0 11.3431,8.58809 12.30935,21.0003 1.02658,13.18722 -19.04354,7.88745 -28.39671,7.72075 m 230.79169,-295.22981 -66.59541,0.002 66.59297,65.12628"
         id="path5"
         sodipodi:nodetypes="ccscscssscscccsssscccscccc"
         inkscape:original-d="m 394.8412,708.63187 -9e-5,46.68168 -39.10608,-0.0641 c -17.31803,-0.0284 -80.9621,-82.78254 -80.9621,-82.78254 0.49898,12.8764 2.85096,37.33618 1.49695,38.62921 l -27.27349,26.04511 -25.19028,-20.79079 c -6.87782,-5.67661 -7.20639,-6.20501 -7.20639,-10.21521 0,-3.17794 0.693,-5.02543 2.81375,-7.5012 6.08746,-7.10657 7.18639,-9.39226 7.18251,-14.93917 -0.005,-6.51686 -3.17142,-10.47395 -7.26816,-13.30993 -1.70806,-1.18241 -6.13666,-3.33025 -11.15796,-3.32787 l 1.00838,-92.1931 73.02578,-0.45367 c 1.63643,25.90601 0.49951,57.28362 7.47678,62.44359 3.09419,2.28828 4.01244,3.0771 11.63924,3.62723 10.26002,0.74006 9.4315,-0.86996 30.20645,19.27259 7.43772,7.21131 12.35485,12.35206 13.75,12.61382 1.34653,0.25264 36.56891,0.69251 49.56406,0.76741 m 9.1e-4,-127.6415 -16.08684,2.2607 c 0,0 -11.3431,8.58809 -12.30935,21.0003 -1.02658,13.18722 19.04354,7.88745 28.39671,7.72075 m -230.79169,-295.22981 66.59541,0.002 -66.59297,65.12628" /><path
         style="display:inline;fill:#1b283a"
         d="m 343.09952,671.98866 c -1.65,-1.01919 -3.9,-2.87663 -5,-4.12763 -1.1,-1.251 -7.71741,-7.61543 -14.70535,-14.14318 l -12.70535,-11.86863 -6.79465,-0.022 c -11.54999,-0.0373 -18.49489,-4.80021 -19.80622,-13.58331 -0.76997,-5.15711 1.89874,-10.33881 6.51157,-12.64317 4.04486,-2.02064 20.94922,-2.48176 25.63732,-0.69935 1.52214,0.57872 7.51394,5.65639 13.3151,11.28372 5.80117,5.62732 12.8908,12.35383 15.75474,14.94779 l 5.20716,4.71628 h 15.48613 c 19.67388,0 18.59955,1.09928 18.59955,-19.03138 0,-18.00088 -0.0633,-18.12203 -9.94641,-19.02792 -6.58328,-0.60343 -7.51685,-0.98145 -11.23529,-4.5494 -2.23047,-2.14022 -5.80206,-6.06921 -7.93686,-8.7311 -5.48452,-5.04149 -3.88144,-11.03558 -3.88144,-18.02749 0,-14.93648 -0.11799,-14.61754 8.81797,-23.83695 7.81353,-8.06138 12.89881,-9.6169 25.74077,-9.58428 4.58921,0.0117 8.68208,0.0293 8.68208,0.0293 l 0.002,4.56781 c -0.84875,0.0267 -3.18249,0.0453 -6.74286,0.32916 -10.00304,0.79741 -10.58055,1.04774 -14.2342,6.17016 -6.6184,9.279 -7.83352,14.53547 -4.35319,18.83133 1.8045,2.22734 2.57796,2.36628 13.68334,2.45805 10.59135,0.0875 11.646,0.0898 11.646,0.0898 l -10e-4,98.28554 -24.46615,0.0233 c -21.88333,-0.003 -24.5703,-0.18629 -27.27475,-1.85682 z M 290.93197,506.05897 c -5.94487,-2.12436 -11.27044,-5.90955 -14.2995,-10.16347 -9.82679,-13.80045 -8.34768,-31.58597 3.56445,-42.07145 6.15136,-5.41464 12.71003,-7.34647 21.92593,-6.75502 8.65474,0.55542 14.17964,3.36373 20.30267,10.31986 12.72234,14.45334 7.89398,38.77065 -9.3146,46.91161 -7.37834,3.49052 -15.52451,4.13639 -22.17895,1.75847 z m 13.40138,-26.88773 c 5.06677,-2.40434 7.76486,-8.65129 6.02125,-13.94116 -2.31764,-7.03139 -10.934,-10.40818 -17.6699,-6.92491 -3.73094,1.92935 -6.47076,7.78062 -5.74303,12.26507 0.65446,4.03295 2.02454,5.91019 6.15785,8.4373 3.72793,2.27927 6.6848,2.32235 11.23383,0.1637 z m 142.25049,192.81742 c 1.65,-1.01919 3.9,-2.87663 5,-4.12763 1.1,-1.251 7.71741,-7.61543 14.70535,-14.14318 l 12.70535,-11.86863 6.79465,-0.022 c 11.54999,-0.0373 18.49489,-4.80021 19.80622,-13.58331 0.76997,-5.15711 -1.89874,-10.33881 -6.51157,-12.64317 -4.04486,-2.02064 -20.94922,-2.48176 -25.63732,-0.69935 -1.52214,0.57872 -7.51394,5.65639 -13.3151,11.28372 -5.80117,5.62732 -12.8908,12.35383 -15.75474,14.94779 l -5.20716,4.71628 h -15.48613 c -19.67388,0 -18.59955,1.09928 -18.59955,-19.03138 0,-18.00088 0.0633,-18.12203 9.94641,-19.02792 6.58328,-0.60343 7.51685,-0.98145 11.23529,-4.5494 2.23047,-2.14022 5.80206,-6.06921 7.93686,-8.7311 5.48452,-5.04149 3.88144,-11.03558 3.88144,-18.02749 0,-14.93648 0.11799,-14.61754 -8.81797,-23.83695 -7.81353,-8.06138 -12.89881,-9.6169 -25.74077,-9.58428 -4.58921,0.0117 -8.68208,0.0293 -8.68208,0.0293 l -0.002,4.56781 c 0.84875,0.0267 3.18249,0.0453 6.74286,0.32916 10.00304,0.79741 10.58055,1.04774 14.2342,6.17016 6.6184,9.279 7.83352,14.53547 4.35319,18.83133 -1.8045,2.22734 -2.57796,2.36628 -13.68334,2.45805 -10.59135,0.0875 -11.646,0.0898 -11.646,0.0898 l 0.001,98.28554 24.46615,0.0233 c 21.88333,-0.003 24.5703,-0.18629 27.27475,-1.85682 z m 52.16755,-165.92969 c 5.94487,-2.12436 11.27044,-5.90955 14.2995,-10.16347 9.82679,-13.80045 8.34768,-31.58597 -3.56445,-42.07145 -6.15136,-5.41464 -12.71003,-7.34647 -21.92593,-6.75502 -8.65474,0.55542 -14.17964,3.36373 -20.30267,10.31986 -12.72234,14.45334 -7.89398,38.77065 9.3146,46.91161 7.37834,3.49052 15.52451,4.13639 22.17895,1.75847 z m -13.40138,-26.88773 c -5.06677,-2.40434 -7.76486,-8.65129 -6.02125,-13.94116 2.31764,-7.03139 10.934,-10.40818 17.6699,-6.92491 3.73094,1.92935 6.47076,7.78062 5.74303,12.26507 -0.65446,4.03295 -2.02454,5.91019 -6.15785,8.4373 -3.72793,2.27927 -6.6848,2.32235 -11.23383,0.1637 z"
         id="path2"
         sodipodi:nodetypes="csscsssssscssssssssccsssscccccsssssssssssss"
         inkscape:original-d="m 343.09952,671.98866 c -1.65,-1.01919 -3.9,-2.87663 -5,-4.12763 -1.1,-1.251 -7.71741,-7.61543 -14.70535,-14.14318 l -12.70535,-11.86863 -6.79465,-0.022 c -11.54999,-0.0373 -18.49489,-4.80021 -19.80622,-13.58331 -0.76997,-5.15711 1.89874,-10.33881 6.51157,-12.64317 4.04486,-2.02064 20.94922,-2.48176 25.63732,-0.69935 1.52214,0.57872 7.51394,5.65639 13.3151,11.28372 5.80117,5.62732 12.8908,12.35383 15.75474,14.94779 l 5.20716,4.71628 h 15.48613 c 19.67388,0 18.59955,1.09928 18.59955,-19.03138 0,-18.00088 -0.0633,-18.12203 -9.94641,-19.02792 -6.58328,-0.60343 -7.51685,-0.98145 -11.23529,-4.5494 -2.23047,-2.14022 -5.80206,-6.06921 -7.93686,-8.7311 -5.48452,-5.04149 -3.88144,-11.03558 -3.88144,-18.02749 0,-14.93648 -0.11799,-14.61754 8.81797,-23.83695 7.81353,-8.06138 12.89881,-9.6169 25.74077,-9.58428 4.58921,0.0117 8.68208,0.0293 8.68208,0.0293 l 0.002,4.56781 c -0.84875,0.0267 -3.18249,0.0453 -6.74286,0.32916 -10.00304,0.79741 -10.58055,1.04774 -14.2342,6.17016 -6.6184,9.279 -7.83352,14.53547 -4.35319,18.83133 1.8045,2.22734 2.57796,2.36628 13.68334,2.45805 10.59135,0.0875 11.646,0.0898 11.646,0.0898 l -10e-4,98.28554 -24.46615,0.0233 c -21.88333,-0.003 -24.5703,-0.18629 -27.27475,-1.85682 z M 290.93197,506.05897 c -5.94487,-2.12436 -11.27044,-5.90955 -14.2995,-10.16347 -9.82679,-13.80045 -8.34768,-31.58597 3.56445,-42.07145 6.15136,-5.41464 12.71003,-7.34647 21.92593,-6.75502 8.65474,0.55542 14.17964,3.36373 20.30267,10.31986 12.72234,14.45334 7.89398,38.77065 -9.3146,46.91161 -7.37834,3.49052 -15.52451,4.13639 -22.17895,1.75847 z m 13.40138,-26.88773 c 5.06677,-2.40434 7.76486,-8.65129 6.02125,-13.94116 -2.31764,-7.03139 -10.934,-10.40818 -17.6699,-6.92491 -3.73094,1.92935 -6.47076,7.78062 -5.74303,12.26507 0.65446,4.03295 2.02454,5.91019 6.15785,8.4373 3.72793,2.27927 6.6848,2.32235 11.23383,0.1637 z" /><path
         style="display:inline;fill:#e49f6b"
         d="m 382.84373,748.22334 c -4.04401,-2.02404 -33.72305,-34.65621 -32.05945,-34.65684 14.68035,-0.006 44.05669,-10e-4 44.05669,-10e-4 l -6.2e-4,36.02989 c 0,0 -0.10314,-0.01 -4.246,0.006 -2.63863,0.01 -5.84235,-0.4226 -7.75063,-1.3777 z M 209.23769,575.17186 208.1841,667.0524 c -1e-4,0.008 -8.27537,0.011 -14.43647,-2.11665 l -2e-5,-10e-6 c -6.49484,-2.24287 -9.30076,-4.26248 -14.59124,-10.50227 -9.16341,-14.39532 -4.76317,-58.98591 -4.84995,-78.25042 m -10.25558,-179.84479 -0.007,-49.96777 66.59412,-65.12525 26.19786,27.66649 z m 242.78879,351.88508 c 4.04401,-2.02404 33.72305,-34.65621 32.05945,-34.65684 -14.68035,-0.006 -44.05669,-10e-4 -44.05669,-10e-4 l 6.2e-4,36.02989 c 0,0 0.10314,-0.01 4.246,0.006 2.63863,0.01 5.84235,-0.4226 7.75063,-1.3777 z m 173.60604,-173.05148 1.05359,91.88054 c 10e-5,0.008 8.27537,0.011 14.43647,-2.11665 l 2e-5,-10e-6 c 6.49484,-2.24287 9.30076,-4.26248 14.59124,-10.50227 9.16341,-14.39532 4.76317,-58.98591 4.84995,-78.25042 m 10.25558,-179.84479 0.007,-49.96777 -66.59412,-65.12525 -26.19786,27.66649 z"
         id="path4"
         sodipodi:nodetypes="csccsscccssccccccc"
         inkscape:original-d="m 382.84373,748.22334 c -4.04401,-2.02404 -33.72305,-34.65621 -32.05945,-34.65684 14.68035,-0.006 44.05669,-10e-4 44.05669,-10e-4 l -6.2e-4,36.02989 c 0,0 -0.10314,-0.01 -4.246,0.006 -2.63863,0.01 -5.84235,-0.4226 -7.75063,-1.3777 z M 209.23769,575.17186 208.1841,667.0524 c -1e-4,0.008 -8.27537,0.011 -14.43647,-2.11665 l -2e-5,-10e-6 c -6.49484,-2.24287 -9.30076,-4.26248 -14.59124,-10.50227 -9.16341,-14.39532 -4.76317,-58.98591 -4.84995,-78.25042 m -10.25558,-179.84479 -0.007,-49.96777 66.59412,-65.12525 26.19786,27.66649 z" /></g></g></svg>
